<svg id="Layer_1" data-name="Layer 1" xmlns="http://www.w3.org/2000/svg" viewBox="0 0 29.68 37.44"><defs><style>.cls-1{fill:#2fb672;}</style></defs><title>Picto Internal Audit</title><path id="Path_9486" data-name="Path 9486" class="cls-1" d="M31.82,28.88a1.46,1.46,0,0,0,1.46-1.46h0V12.58a5.86,5.86,0,0,0-5.85-5.85H22.82V4.54a1.46,1.46,0,0,0-1.46-1.47H15.51a1.46,1.46,0,0,0-1.46,1.47h0V6.73H9.45A5.85,5.85,0,0,0,3.6,12.58V34.66a5.85,5.85,0,0,0,5.85,5.85h18a5.86,5.86,0,0,0,5.85-5.85,1.47,1.47,0,0,0-2.93,0,2.93,2.93,0,0,1-2.92,2.93h-18a2.93,2.93,0,0,1-2.93-2.93V12.58A2.93,2.93,0,0,1,9.45,9.65h4.6v.73a4.39,4.39,0,1,0,8.77,0V9.65h4.61a2.93,2.93,0,0,1,2.92,2.93V27.42a1.46,1.46,0,0,0,1.47,1.46ZM19.9,10.39a1.47,1.47,0,0,1-2.93,0V6H19.9Zm6.39,9.33a1.46,1.46,0,0,1,.37,2l-6.51,9.38-.06.08a3.76,3.76,0,0,1-2.68,1.4h-.25a3.79,3.79,0,0,1-2.59-1l0,0-3.87-3.82a1.46,1.46,0,1,1,2.06-2.08h0l3.85,3.81a.84.84,0,0,0,1.18,0h0l6.47-9.32a1.45,1.45,0,0,1,2-.37Z" transform="translate(-3.6 -3.07)"/></svg>