<svg version="1.1" id="Layer_1" xmlns="http://www.w3.org/2000/svg" x="0" y="0" viewBox="0 0 330.37 347.64" xml:space="preserve">
  <style>
    .st0{fill:#22354B}
  </style>
  <g id="mega">
    <path class="st0" d="M64.88 253.46h9.87v46.48H63.97V268.8l-13.14 16.1-13.21-15.87v30.91H26.83v-46.48h9.87l14.13 16.48 14.05-16.48zM145.31 271.39v9.19h-17.85v9.04h22.63v10.33h-33.41v-46.48h33.41v10.33h-22.63v7.59h17.85zM220.73 289.31v-13.9h10.71v19.97c-.38.53-1.52 1.22-2.05 1.52-4.25 2.43-9.34 3.8-14.2 3.8-14.13 0-23.85-9.87-23.85-24 0-13.75 10.02-24 23.85-24 5.16 0 12.38 1.44 16.33 5.09l-4.33 9.11c-2.28-2.13-6.68-3.72-9.8-3.72-7.67 0-14.2 5.62-14.2 13.52 0 9.04 5.54 13.52 14.35 13.52 1.06 0 2.28-.23 3.19-.91zM299.26 253.46l13.82 46.48h-10.86l-3.34-10.33h-14.43l-3.34 10.33h-10.86L284 253.46h15.26zm-12.3 26.43h9.42l-4.71-16.33-4.71 16.33z"/>
  </g>
  <path id="boucle" d="M129.84 33.73c44.84 0 81.32 36.48 81.32 81.32 0 44.84-36.48 81.32-81.32 81.32-17.83 0-56.96.02-81.27.03l-.05-81.35c0-44.84 36.48-81.32 81.32-81.32m0-20.77c-56.38 0-102.09 45.71-102.09 102.09l.06 102.14c1.97 0 75.54-.04 102.03-.04 56.38 0 102.09-45.71 102.09-102.09 0-56.39-45.7-102.1-102.09-102.1z" fill="#31b672"/>
  <g id="tagline">
    <path class="st0" d="M30.22 324.47c-1.63-.47-2.81-1.04-3.55-1.72s-1.11-1.52-1.11-2.52c0-1.13.45-2.07 1.36-2.81.9-.74 2.08-1.11 3.53-1.11.99 0 1.87.19 2.64.57.77.38 1.37.91 1.8 1.58.42.67.64 1.41.64 2.2h-1.91c0-.87-.28-1.56-.83-2.06-.55-.5-1.33-.75-2.34-.75-.93 0-1.66.21-2.19.62-.52.41-.78.98-.78 1.72 0 .59.25 1.08.75 1.49.5.41 1.34.78 2.54 1.11 1.19.34 2.13.71 2.8 1.11.67.4 1.17.88 1.5 1.42.33.54.49 1.17.49 1.91 0 1.17-.45 2.1-1.36 2.8-.91.7-2.12 1.05-3.64 1.05-.99 0-1.91-.19-2.76-.57-.86-.38-1.52-.9-1.98-1.56s-.7-1.41-.7-2.24h1.91c0 .87.32 1.56.96 2.06.64.5 1.5.76 2.57.76 1 0 1.77-.2 2.3-.61.53-.41.8-.96.8-1.67 0-.7-.25-1.25-.74-1.63-.51-.39-1.4-.77-2.7-1.15zM48.53 324.24H42.3v5.09h7.24v1.55h-9.13V316.5h9.03v1.55H42.3v4.63h6.23v1.56zM62.45 324.24h-6.23v5.09h7.24v1.55h-9.13V316.5h9.03v1.55h-7.14v4.63h6.23v1.56zM85.22 318.06H80.6v12.83h-1.89v-12.83H74.1v-1.55h11.12v1.55zM100.83 330.88h-1.91v-6.64h-7.25v6.64h-1.9V316.5h1.9v6.18h7.25v-6.18h1.91v14.38zM114.74 324.24h-6.23v5.09h7.24v1.55h-9.13V316.5h9.03v1.55h-7.14v4.63h6.23v1.56zM127.97 330.88V316.5h4.7c1.56 0 2.73.32 3.52.97.79.65 1.18 1.6 1.18 2.86 0 .67-.19 1.27-.57 1.78-.38.52-.9.92-1.56 1.2.78.22 1.39.63 1.84 1.24.45.61.68 1.33.68 2.18 0 1.29-.42 2.3-1.25 3.04-.84.74-2.02 1.11-3.54 1.11h-5zm1.9-8.24h2.86c.83 0 1.49-.21 1.99-.62.5-.42.75-.98.75-1.69 0-.79-.23-1.37-.69-1.73-.46-.36-1.16-.54-2.1-.54h-2.8v4.58zm0 1.52v5.17H133c.88 0 1.58-.23 2.09-.69.51-.46.77-1.09.77-1.89 0-1.73-.94-2.6-2.82-2.6h-3.17zM145.02 330.88h-1.9V316.5h1.9v14.38zM161.53 329c-.49.7-1.17 1.22-2.04 1.57-.87.35-1.89.52-3.05.52-1.17 0-2.21-.28-3.12-.82s-1.61-1.33-2.11-2.35c-.5-1.01-.75-2.19-.77-3.52v-1.25c0-2.17.5-3.84 1.52-5.04 1.01-1.19 2.43-1.79 4.26-1.79 1.5 0 2.71.38 3.62 1.15.91.77 1.47 1.86 1.68 3.26h-1.9c-.36-1.91-1.49-2.86-3.4-2.86-1.27 0-2.23.45-2.89 1.34-.66.89-.99 2.19-.99 3.88v1.18c0 1.61.37 2.9 1.11 3.85.74.95 1.73 1.43 2.99 1.43.71 0 1.33-.08 1.87-.24.53-.16.97-.42 1.32-.8v-3.22h-3.33v-1.55h5.21V329zM177.73 329c-.49.7-1.17 1.22-2.04 1.57-.87.35-1.89.52-3.05.52-1.17 0-2.21-.28-3.12-.82-.91-.55-1.61-1.33-2.11-2.35-.5-1.01-.75-2.19-.77-3.52v-1.25c0-2.17.5-3.84 1.52-5.04 1.01-1.19 2.43-1.79 4.26-1.79 1.5 0 2.71.38 3.62 1.15.91.77 1.47 1.86 1.68 3.26h-1.9c-.36-1.91-1.49-2.86-3.4-2.86-1.27 0-2.23.45-2.89 1.34-.66.89-.99 2.19-.99 3.88v1.18c0 1.61.37 2.9 1.11 3.85.74.95 1.73 1.43 2.99 1.43.71 0 1.33-.08 1.87-.24.53-.16.97-.42 1.32-.8v-3.22h-3.33v-1.55h5.21V329zM191.44 324.24h-6.23v5.09h7.24v1.55h-9.13V316.5h9.03v1.55h-7.14v4.63h6.23v1.56zM202.51 325.07h-3.38v5.82h-1.91v-14.38h4.76c1.62 0 2.86.37 3.74 1.11.87.74 1.31 1.81 1.31 3.22 0 .89-.24 1.67-.73 2.34-.48.67-1.16 1.16-2.02 1.49l3.38 6.1v.12h-2.03l-3.12-5.82zm-3.38-1.55h2.91c.94 0 1.69-.24 2.25-.73s.83-1.14.83-1.96c0-.89-.27-1.57-.79-2.05-.53-.48-1.29-.72-2.3-.72h-2.9v5.46zM221.44 325.25v5.63h-1.9V316.5h5.3c1.57 0 2.81.4 3.7 1.2s1.34 1.87 1.34 3.19c0 1.4-.44 2.47-1.31 3.22-.87.75-2.12 1.13-3.75 1.13h-3.38zm0-1.55h3.41c1.01 0 1.79-.24 2.33-.72s.81-1.17.81-2.07c0-.86-.27-1.54-.81-2.06-.54-.51-1.28-.78-2.22-.8h-3.52v5.65zM236.76 330.88h-1.9V316.5h1.9v14.38zM253.23 326.32c-.18 1.52-.74 2.69-1.68 3.52-.95.83-2.2 1.24-3.77 1.24-1.7 0-3.06-.61-4.08-1.83-1.02-1.22-1.54-2.85-1.54-4.89v-1.38c0-1.34.24-2.51.72-3.52.48-1.01 1.15-1.79 2.03-2.34.88-.54 1.89-.81 3.04-.81 1.53 0 2.75.43 3.67 1.28.92.85 1.46 2.03 1.61 3.54h-1.91c-.17-1.15-.52-1.98-1.07-2.5s-1.32-.77-2.31-.77c-1.21 0-2.16.45-2.85 1.34-.69.9-1.03 2.17-1.03 3.82v1.39c0 1.56.33 2.8.98 3.73.65.92 1.56 1.38 2.74 1.38 1.05 0 1.86-.24 2.42-.72.56-.48.94-1.31 1.12-2.49h1.91zM267.89 318.06h-4.62v12.83h-1.89v-12.83h-4.61v-1.55h11.12v1.55zM282.57 316.51v9.77c-.01 1.36-.43 2.46-1.28 3.33-.85.86-1.99 1.35-3.44 1.45l-.5.02c-1.57 0-2.83-.42-3.76-1.27-.94-.85-1.41-2.02-1.42-3.51v-9.79h1.88v9.74c0 1.04.29 1.85.86 2.42.57.58 1.39.86 2.45.86 1.07 0 1.89-.29 2.46-.86.57-.57.85-1.38.85-2.42v-9.75h1.9zM293.26 325.07h-3.38v5.82h-1.91v-14.38h4.76c1.62 0 2.86.37 3.74 1.11.87.74 1.31 1.81 1.31 3.22 0 .89-.24 1.67-.73 2.34-.48.67-1.16 1.16-2.02 1.49l3.38 6.1v.12h-2.03l-3.12-5.82zm-3.38-1.55h2.91c.94 0 1.69-.24 2.25-.73s.83-1.14.83-1.96c0-.89-.27-1.57-.79-2.05-.53-.48-1.3-.72-2.3-.72h-2.9v5.46zM310.99 324.24h-6.23v5.09H312v1.55h-9.13V316.5h9.03v1.55h-7.14v4.63h6.23v1.56z"/>
  </g>
</svg>