<?xml version="1.0" encoding="utf-8"?>
<svg version="1.1" id="Layer_1" xmlns="http://www.w3.org/2000/svg" x="0" y="0" viewBox="0 0 330.4 123.2" xml:space="preserve">
  <style>
    .st0{fill:#31b672}.st1{fill:#22354b}
  </style>
  <path class="st0" d="M16.2 77.6v15.3c0 1.5.5 1.8 1.9 1.8 9.4-.1 18.8 0 28.2-.1 1.9 0 3.9-.1 5.8-.5C69.4 90.6 79.8 74.7 76 57.8c-3.3-14.4-17.4-24.4-32.5-22.9-15 1.4-26.9 13.9-27.2 28.7-.2 4.7-.1 9.3-.1 14m-7.5 3.2V64.1c.2-20.5 17.3-37 38.2-36.8 17.2.2 32.1 11.9 36.3 28.4 5.2 20.6-8 41.3-29.2 45.5-2.4.5-5 .7-7.5.8-12 .1-24 0-36 .1-1.4 0-1.8-.4-1.8-1.8V80.8z"/>
  <g id="mega">
    <path class="st1" d="M140.2 48.5h6.9V81h-7.5V59.2l-9.2 11.2-9.2-11.1V81h-7.5V48.5h6.9l9.9 11.5 9.7-11.5zM196.3 61.1v6.4h-12.5v6.3h15.8V81h-23.3V48.5h23.3v7.2h-15.8V61h12.5zM249 73.6v-9.7h7.5v13.9c-.3.4-1.1.9-1.4 1.1-3 1.7-6.5 2.7-9.9 2.7-9.9 0-16.6-6.9-16.6-16.8 0-9.6 7-16.8 16.6-16.8 3.6 0 8.6 1 11.4 3.6l-3 6.4c-1.6-1.5-4.7-2.6-6.8-2.6-5.4 0-9.9 3.9-9.9 9.4 0 6.3 3.9 9.4 10 9.4.6 0 1.4-.2 2.1-.6zM303.8 48.5l9.6 32.4h-7.6l-2.3-7.2h-10.1l-2.3 7.2h-7.6l9.6-32.4h10.7zM295.2 67h6.6l-3.3-11.4-3.3 11.4z"/>
  </g>
</svg>