<?xml version="1.0" encoding="utf-8"?>
<!-- Generator: Adobe Illustrator 23.0.6, SVG Export Plug-In . SVG Version: 6.00 Build 0)  -->
<svg version="1.1" id="Layer_1" xmlns="http://www.w3.org/2000/svg" xmlns:xlink="http://www.w3.org/1999/xlink" x="0px" y="0px"
	 viewBox="0 0 330.37 347.64" style="enable-background:new 0 0 330.37 347.64;" xml:space="preserve">
<style type="text/css">
	.st0{fill:#22354B;}
	.st1{fill:#31B672;}
</style>
<g id="mega">
	<path class="st0" d="M64.88,253.46h9.87v46.48H63.97V268.8l-13.14,16.1l-13.21-15.87v30.91H26.83v-46.48h9.87l14.13,16.48
		L64.88,253.46z"/>
	<path class="st0" d="M145.31,271.39v9.19h-17.85v9.04h22.63v10.33h-33.41v-46.48h33.41v10.33h-22.63v7.59H145.31z"/>
	<path class="st0" d="M220.73,289.31v-13.9h10.71v19.97c-0.38,0.53-1.52,1.22-2.05,1.52c-4.25,2.43-9.34,3.8-14.2,3.8
		c-14.13,0-23.85-9.87-23.85-24c0-13.75,10.02-24,23.85-24c5.16,0,12.38,1.44,16.33,5.09l-4.33,9.11c-2.28-2.13-6.68-3.72-9.8-3.72
		c-7.67,0-14.2,5.62-14.2,13.52c0,9.04,5.54,13.52,14.35,13.52C218.6,290.22,219.82,289.99,220.73,289.31z"/>
	<path class="st0" d="M299.26,253.46l13.82,46.48h-10.86l-3.34-10.33h-14.43l-3.34,10.33h-10.86l13.75-46.48H299.26z M286.96,279.89
		h9.42l-4.71-16.33L286.96,279.89z"/>
</g>
<path id="boucle" class="st1" d="M129.84,33.73c44.84,0,81.32,36.48,81.32,81.32c0,44.84-36.48,81.32-81.32,81.32
	c-17.83,0-56.96,0.02-81.27,0.03l-0.05-81.35C48.52,70.21,85,33.73,129.84,33.73 M129.84,12.96c-56.38,0-102.09,45.71-102.09,102.09
	l0.06,102.14c1.97,0,75.54-0.04,102.03-0.04c56.38,0,102.09-45.71,102.09-102.09C231.93,58.67,186.23,12.96,129.84,12.96
	L129.84,12.96z"/>
<g id="tagline">
	<path class="st0" d="M30.22,324.47c-1.63-0.47-2.81-1.04-3.55-1.72s-1.11-1.52-1.11-2.52c0-1.13,0.45-2.07,1.36-2.81
		c0.9-0.74,2.08-1.11,3.53-1.11c0.99,0,1.87,0.19,2.64,0.57c0.77,0.38,1.37,0.91,1.8,1.58c0.42,0.67,0.64,1.41,0.64,2.2h-1.91
		c0-0.87-0.28-1.56-0.83-2.06c-0.55-0.5-1.33-0.75-2.34-0.75c-0.93,0-1.66,0.21-2.19,0.62c-0.52,0.41-0.78,0.98-0.78,1.72
		c0,0.59,0.25,1.08,0.75,1.49c0.5,0.41,1.34,0.78,2.54,1.11c1.19,0.34,2.13,0.71,2.8,1.11c0.67,0.4,1.17,0.88,1.5,1.42
		c0.33,0.54,0.49,1.17,0.49,1.91c0,1.17-0.45,2.1-1.36,2.8c-0.91,0.7-2.12,1.05-3.64,1.05c-0.99,0-1.91-0.19-2.76-0.57
		c-0.86-0.38-1.52-0.9-1.98-1.56s-0.7-1.41-0.7-2.24h1.91c0,0.87,0.32,1.56,0.96,2.06c0.64,0.5,1.5,0.76,2.57,0.76
		c1,0,1.77-0.2,2.3-0.61c0.53-0.41,0.8-0.96,0.8-1.67c0-0.7-0.25-1.25-0.74-1.63C32.41,325.23,31.52,324.85,30.22,324.47z"/>
	<path class="st0" d="M48.53,324.24H42.3v5.09h7.24v1.55h-9.13v-14.38h9.03v1.55H42.3v4.63h6.23V324.24z"/>
	<path class="st0" d="M62.45,324.24h-6.23v5.09h7.24v1.55h-9.13v-14.38h9.03v1.55h-7.14v4.63h6.23V324.24z"/>
	<path class="st0" d="M85.22,318.06H80.6v12.83h-1.89v-12.83H74.1v-1.55h11.12V318.06z"/>
	<path class="st0" d="M100.83,330.88h-1.91v-6.64h-7.25v6.64h-1.9v-14.38h1.9v6.18h7.25v-6.18h1.91V330.88z"/>
	<path class="st0" d="M114.74,324.24h-6.23v5.09h7.24v1.55h-9.13v-14.38h9.03v1.55h-7.14v4.63h6.23V324.24z"/>
	<path class="st0" d="M127.97,330.88v-14.38h4.7c1.56,0,2.73,0.32,3.52,0.97c0.79,0.65,1.18,1.6,1.18,2.86
		c0,0.67-0.19,1.27-0.57,1.78c-0.38,0.52-0.9,0.92-1.56,1.2c0.78,0.22,1.39,0.63,1.84,1.24c0.45,0.61,0.68,1.33,0.68,2.18
		c0,1.29-0.42,2.3-1.25,3.04c-0.84,0.74-2.02,1.11-3.54,1.11H127.97z M129.87,322.64h2.86c0.83,0,1.49-0.21,1.99-0.62
		c0.5-0.42,0.75-0.98,0.75-1.69c0-0.79-0.23-1.37-0.69-1.73c-0.46-0.36-1.16-0.54-2.1-0.54h-2.8V322.64z M129.87,324.16v5.17H133
		c0.88,0,1.58-0.23,2.09-0.69c0.51-0.46,0.77-1.09,0.77-1.89c0-1.73-0.94-2.6-2.82-2.6H129.87z"/>
	<path class="st0" d="M145.02,330.88h-1.9v-14.38h1.9V330.88z"/>
	<path class="st0" d="M161.53,329c-0.49,0.7-1.17,1.22-2.04,1.57c-0.87,0.35-1.89,0.52-3.05,0.52c-1.17,0-2.21-0.28-3.12-0.82
		s-1.61-1.33-2.11-2.35c-0.5-1.01-0.75-2.19-0.77-3.52v-1.25c0-2.17,0.5-3.84,1.52-5.04c1.01-1.19,2.43-1.79,4.26-1.79
		c1.5,0,2.71,0.38,3.62,1.15c0.91,0.77,1.47,1.86,1.68,3.26h-1.9c-0.36-1.91-1.49-2.86-3.4-2.86c-1.27,0-2.23,0.45-2.89,1.34
		c-0.66,0.89-0.99,2.19-0.99,3.88v1.18c0,1.61,0.37,2.9,1.11,3.85c0.74,0.95,1.73,1.43,2.99,1.43c0.71,0,1.33-0.08,1.87-0.24
		c0.53-0.16,0.97-0.42,1.32-0.8v-3.22h-3.33v-1.55h5.21V329z"/>
	<path class="st0" d="M177.73,329c-0.49,0.7-1.17,1.22-2.04,1.57c-0.87,0.35-1.89,0.52-3.05,0.52c-1.17,0-2.21-0.28-3.12-0.82
		c-0.91-0.55-1.61-1.33-2.11-2.35c-0.5-1.01-0.75-2.19-0.77-3.52v-1.25c0-2.17,0.5-3.84,1.52-5.04c1.01-1.19,2.43-1.79,4.26-1.79
		c1.5,0,2.71,0.38,3.62,1.15c0.91,0.77,1.47,1.86,1.68,3.26h-1.9c-0.36-1.91-1.49-2.86-3.4-2.86c-1.27,0-2.23,0.45-2.89,1.34
		c-0.66,0.89-0.99,2.19-0.99,3.88v1.18c0,1.61,0.37,2.9,1.11,3.85c0.74,0.95,1.73,1.43,2.99,1.43c0.71,0,1.33-0.08,1.87-0.24
		c0.53-0.16,0.97-0.42,1.32-0.8v-3.22h-3.33v-1.55h5.21V329z"/>
	<path class="st0" d="M191.44,324.24h-6.23v5.09h7.24v1.55h-9.13v-14.38h9.03v1.55h-7.14v4.63h6.23V324.24z"/>
	<path class="st0" d="M202.51,325.07h-3.38v5.82h-1.91v-14.38h4.76c1.62,0,2.86,0.37,3.74,1.11c0.87,0.74,1.31,1.81,1.31,3.22
		c0,0.89-0.24,1.67-0.73,2.34c-0.48,0.67-1.16,1.16-2.02,1.49l3.38,6.1v0.12h-2.03L202.51,325.07z M199.13,323.52h2.91
		c0.94,0,1.69-0.24,2.25-0.73c0.56-0.49,0.83-1.14,0.83-1.96c0-0.89-0.27-1.57-0.79-2.05c-0.53-0.48-1.29-0.72-2.3-0.72h-2.9V323.52
		z"/>
	<path class="st0" d="M221.44,325.25v5.63h-1.9v-14.38h5.3c1.57,0,2.81,0.4,3.7,1.2s1.34,1.87,1.34,3.19c0,1.4-0.44,2.47-1.31,3.22
		c-0.87,0.75-2.12,1.13-3.75,1.13H221.44z M221.44,323.7h3.41c1.01,0,1.79-0.24,2.33-0.72c0.54-0.48,0.81-1.17,0.81-2.07
		c0-0.86-0.27-1.54-0.81-2.06c-0.54-0.51-1.28-0.78-2.22-0.8h-3.52V323.7z"/>
	<path class="st0" d="M236.76,330.88h-1.9v-14.38h1.9V330.88z"/>
	<path class="st0" d="M253.23,326.32c-0.18,1.52-0.74,2.69-1.68,3.52c-0.95,0.83-2.2,1.24-3.77,1.24c-1.7,0-3.06-0.61-4.08-1.83
		c-1.02-1.22-1.54-2.85-1.54-4.89v-1.38c0-1.34,0.24-2.51,0.72-3.52c0.48-1.01,1.15-1.79,2.03-2.34c0.88-0.54,1.89-0.81,3.04-0.81
		c1.53,0,2.75,0.43,3.67,1.28c0.92,0.85,1.46,2.03,1.61,3.54h-1.91c-0.17-1.15-0.52-1.98-1.07-2.5c-0.55-0.52-1.32-0.77-2.31-0.77
		c-1.21,0-2.16,0.45-2.85,1.34c-0.69,0.9-1.03,2.17-1.03,3.82v1.39c0,1.56,0.33,2.8,0.98,3.73c0.65,0.92,1.56,1.38,2.74,1.38
		c1.05,0,1.86-0.24,2.42-0.72c0.56-0.48,0.94-1.31,1.12-2.49H253.23z"/>
	<path class="st0" d="M267.89,318.06h-4.62v12.83h-1.89v-12.83h-4.61v-1.55h11.12V318.06z"/>
	<path class="st0" d="M282.57,316.51v9.77c-0.01,1.36-0.43,2.46-1.28,3.33c-0.85,0.86-1.99,1.35-3.44,1.45l-0.5,0.02
		c-1.57,0-2.83-0.42-3.76-1.27c-0.94-0.85-1.41-2.02-1.42-3.51v-9.79h1.88v9.74c0,1.04,0.29,1.85,0.86,2.42
		c0.57,0.58,1.39,0.86,2.45,0.86c1.07,0,1.89-0.29,2.46-0.86c0.57-0.57,0.85-1.38,0.85-2.42v-9.75H282.57z"/>
	<path class="st0" d="M293.26,325.07h-3.38v5.82h-1.91v-14.38h4.76c1.62,0,2.86,0.37,3.74,1.11c0.87,0.74,1.31,1.81,1.31,3.22
		c0,0.89-0.24,1.67-0.73,2.34c-0.48,0.67-1.16,1.16-2.02,1.49l3.38,6.1v0.12h-2.03L293.26,325.07z M289.88,323.52h2.91
		c0.94,0,1.69-0.24,2.25-0.73c0.56-0.49,0.83-1.14,0.83-1.96c0-0.89-0.27-1.57-0.79-2.05c-0.53-0.48-1.3-0.72-2.3-0.72h-2.9V323.52z
		"/>
	<path class="st0" d="M310.99,324.24h-6.23v5.09H312v1.55h-9.13v-14.38h9.03v1.55h-7.14v4.63h6.23V324.24z"/>
</g>
</svg>
