<?xml version="1.0" encoding="utf-8"?>
<!-- Generator: Adobe Illustrator 23.0.6, SVG Export Plug-In . SVG Version: 6.00 Build 0)  -->
<svg version="1.1" id="Layer_1" xmlns="http://www.w3.org/2000/svg" xmlns:xlink="http://www.w3.org/1999/xlink" x="0px" y="0px"
	 viewBox="0 0 24 24" style="enable-background:new 0 0 24 24;" xml:space="preserve">
<style type="text/css">
	.st0{fill:#FFFFFF;}
	.st1{fill:#2FB672;}
</style>
<g>
	<g>
		<path class="st0" d="M-207.56,30.41v-8.88c0-4.51-3.95-8.18-8.8-8.18c-4.85,0-8.8,3.67-8.8,8.18v8.88
			c-4.33,2.87-7.2,7.78-7.2,13.35c0,8.83,7.18,16,16,16c8.82,0,16-7.17,16-16C-200.36,38.19-203.23,33.28-207.56,30.41
			L-207.56,30.41z M-223.56,29.48v-7.95c0-3.63,3.23-6.57,7.2-6.57s7.2,2.95,7.2,6.57v7.95c-0.15-0.07-0.3-0.14-0.46-0.21
			c-0.31-0.14-0.63-0.28-0.96-0.41c-0.21-0.08-0.42-0.16-0.63-0.23c-0.21-0.07-0.41-0.14-0.63-0.21c-0.35-0.1-0.7-0.19-1.06-0.27
			c-0.16-0.04-0.31-0.07-0.47-0.1c-0.42-0.08-0.84-0.15-1.26-0.19c-0.1-0.01-0.19-0.02-0.29-0.03c-0.48-0.04-0.96-0.07-1.45-0.07
			c-0.49,0-0.97,0.03-1.45,0.07c-0.09,0.01-0.19,0.02-0.29,0.03c-0.42,0.05-0.84,0.11-1.26,0.19c-0.16,0.03-0.31,0.07-0.46,0.1
			c-0.36,0.08-0.71,0.17-1.06,0.27c-0.21,0.06-0.42,0.14-0.63,0.21c-0.21,0.07-0.42,0.15-0.63,0.23c-0.32,0.13-0.65,0.27-0.96,0.41
			C-223.26,29.34-223.41,29.41-223.56,29.48L-223.56,29.48z M-216.36,58.16c-7.94,0-14.4-6.46-14.4-14.4c0-5.23,2.81-9.8,6.99-12.32
			c0.74-0.45,1.51-0.82,2.3-1.12c0.14-0.05,0.28-0.1,0.42-0.16c0.22-0.07,0.44-0.15,0.66-0.21c0.27-0.08,0.55-0.15,0.83-0.21
			c0.2-0.05,0.41-0.09,0.61-0.12c0.3-0.06,0.59-0.1,0.9-0.14c0.14-0.02,0.27-0.03,0.41-0.04c0.42-0.04,0.85-0.07,1.28-0.07
			c0.43,0,0.86,0.03,1.28,0.07c0.14,0.01,0.27,0.03,0.41,0.04c0.3,0.04,0.6,0.08,0.89,0.14c0.2,0.03,0.41,0.08,0.61,0.12
			c0.28,0.06,0.55,0.13,0.83,0.21c0.22,0.07,0.44,0.14,0.66,0.21c0.14,0.05,0.28,0.1,0.42,0.16c0.79,0.3,1.56,0.68,2.3,1.12
			c4.18,2.52,6.99,7.1,6.99,12.32C-201.97,51.7-208.42,58.16-216.36,58.16L-216.36,58.16z M-216.36,58.16"/>
	</g>
	<path class="st0" d="M-206.76,42.96h-2.45c-0.15-1.39-0.7-2.66-1.53-3.69l1.73-1.73c0.31-0.31,0.31-0.82,0-1.13
		c-0.32-0.31-0.82-0.31-1.13,0l-1.73,1.73c-1.04-0.83-2.3-1.38-3.69-1.54v-2.44c0-0.44-0.36-0.8-0.8-0.8s-0.8,0.36-0.8,0.8v2.44
		c-1.39,0.16-2.65,0.71-3.69,1.54l-1.73-1.73c-0.31-0.31-0.82-0.31-1.13,0c-0.31,0.31-0.31,0.82,0,1.13l1.73,1.73
		c-0.83,1.04-1.38,2.3-1.53,3.69h-2.45c-0.44,0-0.8,0.36-0.8,0.8c0,0.45,0.35,0.8,0.8,0.8h2.45c0.15,1.39,0.7,2.65,1.53,3.69
		l-1.73,1.73c-0.31,0.31-0.31,0.82,0,1.13c0.16,0.16,0.36,0.23,0.57,0.23c0.21,0,0.41-0.08,0.57-0.23l1.73-1.73
		c1.04,0.83,2.3,1.38,3.69,1.54v2.45c0,0.44,0.36,0.8,0.8,0.8s0.8-0.36,0.8-0.8v-2.45c1.39-0.16,2.65-0.71,3.69-1.54l1.73,1.73
		c0.16,0.16,0.36,0.23,0.57,0.23c0.2,0,0.41-0.08,0.57-0.23c0.31-0.31,0.31-0.82,0-1.13l-1.73-1.73c0.83-1.04,1.38-2.31,1.53-3.69
		h2.45c0.44,0,0.8-0.35,0.8-0.8C-205.97,43.32-206.32,42.96-206.76,42.96L-206.76,42.96z M-216.36,49.36c-3.09,0-5.6-2.51-5.6-5.6
		c0-3.09,2.52-5.6,5.6-5.6c3.09,0,5.6,2.51,5.6,5.6C-210.76,46.85-213.28,49.36-216.36,49.36L-216.36,49.36z M-216.36,49.36"/>
</g>
<g>
	<path class="st0" d="M-86.75,28.15l-11.71-5.85c-1.1-0.56-1.79-1.66-1.79-2.9v-4.14c0.28-0.35,0.57-0.74,0.88-1.17
		c1.52-2.14,2.73-4.53,3.62-7.11c1.73-0.79,2.85-2.5,2.85-4.43v-4.91c0-1.18-0.44-2.32-1.23-3.21v-6.52
		c0.07-0.67,0.34-4.69-2.56-7.99c-2.52-2.87-6.61-4.33-12.15-4.33c-5.54,0-9.62,1.45-12.14,4.33c-2.9,3.31-2.63,7.32-2.56,7.99v6.52
		c-0.78,0.89-1.23,2.03-1.23,3.21v4.91c0,1.49,0.68,2.88,1.84,3.81c1.12,4.45,3.47,7.8,4.29,8.87v4.06c0,1.19-0.65,2.27-1.69,2.84
		l-10.93,5.97c-3.56,1.94-5.76,5.66-5.76,9.71v3.97c0,5.82,18.44,7.35,28.18,7.35c9.75,0,28.19-1.54,28.19-7.35v-3.73
		C-80.64,33.83-82.98,30.04-86.75,28.15L-86.75,28.15z M-83.09,41.77c0,1.66-9.08,4.9-25.74,4.9c-16.65,0-25.73-3.24-25.73-4.9V37.8
		c0-3.15,1.72-6.04,4.48-7.55l10.93-5.97c1.83-1,2.97-2.91,2.97-5v-4.92l-0.29-0.34c-0.03-0.04-3.03-3.67-4.18-8.66l-0.11-0.49
		l-0.42-0.27c-0.71-0.46-1.13-1.23-1.13-2.05v-4.91c0-0.68,0.29-1.33,0.82-1.81l0.4-0.37v-7.63l0-0.16
		c-0.01-0.03-0.43-3.43,1.96-6.15c2.03-2.32,5.5-3.49,10.3-3.49c4.79,0,8.25,1.16,10.28,3.46c2.39,2.7,1.99,6.15,1.99,6.18
		l-0.01,7.79l0.41,0.37c0.53,0.47,0.82,1.12,0.82,1.8v4.91c0,1.06-0.7,2-1.74,2.33l-0.61,0.19l-0.2,0.61
		c-0.82,2.55-1.99,4.91-3.47,7c-0.37,0.51-0.72,0.98-1.03,1.32l-0.31,0.35v5.06c0,2.17,1.21,4.12,3.15,5.09l11.7,5.85
		c2.94,1.47,4.76,4.42,4.76,7.7V41.77z M-83.09,41.77"/>
</g>
<g id="Group_29">
	<g id="Group_28">
		<circle id="Ellipse_1" class="st1" cx="16.72" cy="15.69" r="1.35"/>
		<path id="Path_2063" class="st1" d="M21.01,20.62c0.5,0,0.9-0.4,0.9-0.9v-7.35c0-1.98-1.61-3.59-3.59-3.59h-1.08V5.62
			c-0.07-2.97-2.53-5.33-5.51-5.26C8.86,0.43,6.54,2.74,6.48,5.62v3.16H5.4c-1.98,0-3.59,1.61-3.59,3.59v7.35
			c0,1.98,1.61,3.59,3.59,3.59h12.92c1.98,0,3.59-1.61,3.59-3.59c0-0.5-0.4-0.9-0.9-0.9c-0.5,0-0.9,0.4-0.9,0.9
			c0,0.99-0.8,1.79-1.79,1.79H5.4c-0.99,0-1.79-0.8-1.79-1.79v-7.35c0-0.99,0.8-1.79,1.79-1.79h12.92c0.99,0,1.79,0.8,1.79,1.79
			v7.35C20.11,20.21,20.51,20.62,21.01,20.62z M15.45,8.78H8.27V5.62c0-1.98,1.61-3.59,3.59-3.59s3.59,1.61,3.59,3.59V8.78z"/>
		<circle id="Ellipse_2" class="st1" cx="10.28" cy="15.69" r="1.35"/>
		<circle id="Ellipse_3" class="st1" cx="7.08" cy="15.69" r="1.34"/>
		<circle id="Ellipse_4" class="st1" cx="13.48" cy="15.69" r="1.35"/>
	</g>
</g>
</svg>
